<?xml version="1.0" encoding="utf-8"?>
<!-- Generator: Adobe Illustrator 21.0.2, SVG Export Plug-In . SVG Version: 6.00 Build 0)  -->
<svg version="1.1" id="Layer_1" xmlns="http://www.w3.org/2000/svg" xmlns:xlink="http://www.w3.org/1999/xlink" x="0px" y="0px"
	 viewBox="0 0 101.2 77.5" style="enable-background:new 0 0 101.2 77.5;" xml:space="preserve">
<style type="text/css">
	.st0{fill:#18B125;stroke:#FFFFFF;stroke-miterlimit:10;}
	.st1{fill:#404141;stroke:#FFFFFF;stroke-miterlimit:10;}
</style>
<g>
	<path class="st0" d="M96.6,37.8c0.7,0,1.3,0.1,2,0.2c-1.1,7.2-7.8,12.2-15.1,11.1C84.6,42.5,90.2,37.8,96.6,37.8L96.6,37.8z
		 M96.6,37.8"/>
	<path class="st0" d="M95.9,18.3c1.6,7.1-2.9,14.2-10,15.8c-0.2-1-0.3-1.9-0.3-2.9C85.6,25.2,89.8,19.7,95.9,18.3L95.9,18.3z
		 M95.9,18.3"/>
	<path class="st0" d="M94.5,58.5L94.5,58.5c-4.6,5.6-12.9,6.5-18.6,1.9c0,0,0.1-0.1,0.1-0.1c0.3-0.3,0.6-0.6,0.8-0.9
		C81.6,54.6,89.2,54.2,94.5,58.5L94.5,58.5z M94.5,58.5"/>
	<path class="st0" d="M85.6,2.7c4.2,5.9,2.8,14.2-3.1,18.4c-1.7-2.3-2.4-5-2.4-7.6C80.1,9.4,82,5.3,85.6,2.7L85.6,2.7z M85.6,2.7"/>
	<path class="st0" d="M84.2,42.8c0,1.2-0.2,2.5-0.5,3.7c-7-2-11-9.4-9-16.4C80.5,31.8,84.2,37.1,84.2,42.8L84.2,42.8z M84.2,42.8"/>
	<g>
		<path class="st0" d="M83.7,24.9c-6.9,2.4-14.4-1.2-16.9-8c1.5-0.5,2.9-0.8,4.4-0.8C76.7,16.1,81.7,19.5,83.7,24.9L83.7,24.9z
			 M83.7,24.9"/>
		<path class="st0" d="M82.7,73.1c-6.4,3.6-14.4,1.3-18-5c0.6-0.3,1.2-0.6,1.8-0.9c1.5-0.6,3.1-0.9,4.7-0.9
			C75.8,66.4,80.2,68.8,82.7,73.1L82.7,73.1z M82.7,73.1"/>
		<path class="st0" d="M70.6,46.4c2.2,2.5,3.3,5.6,3.3,8.8c0,3.6-1.5,7.3-4.4,9.9C64.7,59.6,65.2,51.2,70.6,46.4L70.6,46.4z
			 M70.6,46.4"/>
		<path class="st0" d="M35.1,67.3c0.6,0.3,1.2,0.6,1.8,0.9c-3.6,6.3-11.6,8.6-18,5c2.4-4.3,6.9-6.7,11.5-6.7
			C32,66.4,33.6,66.7,35.1,67.3L35.1,67.3z M35.1,67.3"/>
	</g>
	<path class="st0" d="M31,46.4c5.5,4.8,5.9,13.2,1.1,18.6c-2.9-2.6-4.4-6.2-4.4-9.9C27.6,52,28.7,48.9,31,46.4L31,46.4z M31,46.4"/>
	<path class="st0" d="M30.4,16.1c1.5,0,3,0.2,4.4,0.8c-2.4,6.9-10,10.5-16.9,8C19.8,19.5,24.9,16.1,30.4,16.1L30.4,16.1z M30.4,16.1
		"/>
	<path class="st0" d="M26.9,30.1c2,7-2,14.3-9,16.4c-0.4-1.2-0.5-2.5-0.5-3.7C17.4,37.1,21.1,31.8,26.9,30.1L26.9,30.1z M26.9,30.1"
		/>
	<path class="st0" d="M25.6,60.2c0,0,0.1,0.1,0.1,0.1c-5.6,4.6-14,3.8-18.6-1.9v0c5.3-4.3,12.9-3.9,17.7,0.8
		C25,59.6,25.3,59.9,25.6,60.2L25.6,60.2z M25.6,60.2"/>
	<path class="st0" d="M21.5,13.5c0,2.6-0.8,5.3-2.4,7.6C13.1,16.9,11.7,8.7,16,2.7C19.6,5.3,21.5,9.4,21.5,13.5L21.5,13.5z
		 M21.5,13.5"/>
	<path class="st0" d="M18,49C10.8,50.1,4.1,45.2,3,38c0.7-0.1,1.3-0.2,2-0.2C11.4,37.8,17,42.5,18,49L18,49z M18,49"/>
	<g>
		<path class="st0" d="M16,31.2c0,1-0.1,1.9-0.3,2.9c-7.1-1.6-11.6-8.7-10-15.8C11.8,19.7,16,25.2,16,31.2L16,31.2z M16,31.2"/>
		<path class="st1" d="M85.6,50.8c3.1,0,6.2-1,8.8-2.9c3.2-2.3,5.3-5.8,5.9-9.7c0.1-0.4,0-0.9-0.3-1.2c-0.3-0.3-0.6-0.6-1.1-0.6
			c-4.4-0.7-8.7,0.7-11.8,3.4c0.1-1.4,0.2-2.8,0.2-4.2c7.4-2.2,12-9.8,10.3-17.5c-0.1-0.4-0.4-0.8-0.7-1c-0.4-0.2-0.8-0.3-1.2-0.2
			c-4.6,1-8.3,4.1-10.2,8.1c-0.3-1-0.7-2-1.1-3c2.8-2.3,4.6-5.4,5.2-9C90.2,8.9,89.3,5,87,1.8c-0.5-0.7-1.5-0.9-2.3-0.4
			c-3.8,2.7-5.9,6.9-6.2,11.2c-0.6-0.7-1.2-1.4-1.9-2.1c-0.6-0.6-1.7-0.6-2.3,0c-0.6,0.6-0.6,1.7,0,2.3c0.9,0.9,1.7,1.8,2.5,2.8
			c-3.2-1.3-6.9-1.5-10.4-0.2c-0.4,0.1-0.7,0.4-0.9,0.8c-0.2,0.4-0.2,0.8-0.1,1.3c1.3,3.7,4,6.7,7.6,8.4c2,1,4.2,1.5,6.4,1.5
			c1.1,0,2.2-0.1,3.4-0.4c0.8,2.8,1.2,5.6,1.3,8.5c-1.9-3.4-5-5.8-8.7-6.9c-0.9-0.3-1.8,0.2-2,1.1c-1.1,3.8-0.7,7.8,1.2,11.3
			c1.7,3.1,4.3,5.4,7.5,6.7c-1.5,4-3.7,7.7-6.7,11c0.2-0.9,0.3-1.7,0.4-2.6c0.2-4-1.1-7.8-3.7-10.7c-0.6-0.7-1.6-0.7-2.3-0.1
			c-5.7,5.1-6.6,13.7-2.2,19.8c-5,2.9-10.7,4.4-16.6,4.4c-5.9,0-11.6-1.5-16.6-4.4c2-2.8,3-6.1,2.8-9.6c-0.2-4-2-7.6-5-10.2
			c-0.7-0.6-1.7-0.5-2.3,0.1c-3.4,3.8-4.4,8.8-3.3,13.4c-3-3.3-5.3-7.1-6.7-11.1c3.2-1.3,5.9-3.6,7.5-6.7c1.9-3.5,2.3-7.5,1.2-11.3
			c-0.1-0.4-0.4-0.8-0.8-1c-0.4-0.2-0.8-0.3-1.2-0.1c-3.8,1.1-6.9,3.7-8.7,6.9c0.1-2.9,0.5-5.7,1.3-8.5c1.1,0.3,2.2,0.4,3.4,0.4
			c2.2,0,4.4-0.5,6.4-1.5c3.6-1.7,6.3-4.7,7.6-8.4c0.3-0.9-0.1-1.8-1-2.1c-3.5-1.2-7.2-1.1-10.4,0.2c0.8-1,1.6-1.9,2.5-2.8
			c0.6-0.6,0.6-1.7,0-2.3c-0.6-0.6-1.7-0.6-2.3,0c-0.7,0.7-1.3,1.4-1.9,2.1c-0.3-4.3-2.4-8.5-6.2-11.2c-0.7-0.5-1.8-0.4-2.3,0.4
			c-2.3,3.2-3.2,7.2-2.5,11.1c0.6,3.6,2.5,6.7,5.2,9c-0.4,1-0.8,2-1.1,3c-1.9-4-5.5-7.1-10.2-8.1c-0.4-0.1-0.9,0-1.2,0.2
			c-0.4,0.2-0.6,0.6-0.7,1C2.4,25.6,7,33.3,14.4,35.5c0,1.4,0,2.8,0.2,4.2c-3.2-2.7-7.4-4-11.8-3.4c-0.4,0.1-0.8,0.3-1.1,0.6
			c-0.3,0.3-0.4,0.8-0.3,1.2C2.5,45.6,8.8,50.8,16,50.8c0.5,0,0.9,0,1.4-0.1c0.5,1.2,1.1,2.4,1.8,3.6c-4.4-1.1-9.3-0.2-13.1,2.9
			c-0.7,0.6-0.8,1.6-0.2,2.3C8.8,63.1,13,65,17.4,65c2.8,0,5.7-0.8,8.2-2.5c0.9,0.9,1.8,1.7,2.8,2.5c-4.4,0.6-8.5,3.2-10.9,7.4
			c-0.2,0.4-0.3,0.8-0.2,1.2c0.1,0.4,0.4,0.8,0.8,1c2.3,1.3,4.8,1.9,7.3,1.9c1.3,0,2.7-0.2,4-0.5c3.3-0.9,6.2-3,8.2-5.8
			c4.2,1.6,8.6,2.5,13.2,2.5c4.6,0,9.1-0.8,13.2-2.5c2,2.8,4.8,4.8,8.2,5.8c1.3,0.4,2.7,0.5,4,0.5c2.5,0,5-0.7,7.3-1.9
			c0.8-0.4,1.1-1.4,0.6-2.2c-2.4-4.2-6.5-6.8-10.9-7.4c1-0.8,1.9-1.6,2.8-2.5c2.5,1.7,5.4,2.5,8.2,2.5c4.3,0,8.6-1.9,11.5-5.4
			c0.3-0.3,0.4-0.8,0.4-1.2c0-0.4-0.3-0.8-0.6-1.1c-3.8-3.1-8.7-4-13.1-2.9c0.7-1.2,1.3-2.4,1.8-3.6C84.7,50.8,85.1,50.8,85.6,50.8
			L85.6,50.8z M89.8,41.7c2-1.5,4.4-2.2,6.8-2.2c-0.7,2.3-2.2,4.4-4.2,5.8c-2,1.5-4.4,2.2-6.8,2.3C86.3,45.2,87.8,43.2,89.8,41.7
			L89.8,41.7z M89,25c1.3-2.1,3.3-3.7,5.5-4.6c0.3,5-2.6,9.7-7.3,11.5C87.1,29.6,87.7,27.1,89,25L89,25z M85.2,5.2
			c1.1,2.2,1.5,4.7,1.1,7.1c-0.4,2.5-1.6,4.7-3.3,6.4C80.7,14.2,81.6,8.7,85.2,5.2L85.2,5.2z M74.3,22.9c-2.2-1.1-4-2.8-5.2-5
			c4.9-0.9,10,1.5,12.3,5.9C79,24.3,76.5,24,74.3,22.9L74.3,22.9z M32.5,18c-2.4,4.4-7.4,6.8-12.3,5.9c1.2-2.2,3-3.9,5.2-5
			C27.6,17.8,30.1,17.5,32.5,18L32.5,18z M15.3,12.3c-0.4-2.5,0-4.9,1.1-7.1c1.8,1.7,2.9,3.9,3.3,6.4c0.4,2.5,0,4.9-1.1,7.1
			C16.9,17,15.7,14.7,15.3,12.3L15.3,12.3z M14.3,32C9.7,30.2,6.7,25.5,7,20.5C11.7,22.3,14.7,27,14.3,32L14.3,32z M9.2,45.3
			c-2-1.5-3.5-3.5-4.2-5.8c5,0,9.5,3.3,11,8.1C13.6,47.5,11.2,46.8,9.2,45.3L9.2,45.3z M31.1,48.9c1.6,1.9,2.5,4.2,2.6,6.7
			c0.1,2.5-0.5,4.9-1.8,6.9C28.7,58.7,28.4,53.1,31.1,48.9L31.1,48.9z M20.4,37.2c1.2-2.2,3-3.9,5.2-4.9c0.7,5-2,9.9-6.6,12
			C18.8,41.9,19.2,39.4,20.4,37.2L20.4,37.2z M9.6,58.7c4.3-2.6,9.9-2,13.6,1.4C18.9,62.6,13.4,62.1,9.6,58.7L9.6,58.7z M28.5,72.8
			c-2.4,0.7-4.9,0.5-7.2-0.3c3.1-3.9,8.4-5.4,13-3.7c0,0,0.1,0,0.1,0.1C33,70.7,30.9,72.1,28.5,72.8L28.5,72.8z M77.3,39.4
			c-1.2-2.2-1.6-4.6-1.3-7.1c4.5,2.1,7.2,7,6.6,12C80.3,43.3,78.5,41.6,77.3,39.4L77.3,39.4z M67.9,55.6c0.1-2.5,1.1-4.8,2.6-6.7
			c1.3,2.1,2,4.5,1.8,6.9c-0.1,2.5-1.1,4.8-2.6,6.7C68.3,60.5,67.7,58.1,67.9,55.6L67.9,55.6z M80.2,72.5c-4.7,1.8-10,0.3-13.1-3.6
			c0,0,0.1,0,0.1-0.1C71.9,67.1,77.2,68.5,80.2,72.5L80.2,72.5z M92,58.7c-3.7,3.4-9.3,3.9-13.6,1.4C82.1,56.7,87.6,56.2,92,58.7
			L92,58.7z M92,58.7"/>
	</g>
</g>
</svg>
