<svg id="Layer_1" xmlns="http://www.w3.org/2000/svg" viewBox="0 0 161.8 117.5"><style>.st0{fill:#18b125}.st1{stroke-width:3}.st1,.st2,.st3{fill:none;stroke:#3e3f3f;stroke-miterlimit:10}.st2{stroke-width:2.997}.st3{stroke-width:2.8455}</style><path class="st0" d="M8.6 95h17.8v18.8H8.6zm19.6 0h17.9v18.8H28.2zM48 95h17.8v18.8H48zm0-21h17.8v19H48zm-19.8 0h17.9v19H28.2zM8.6 74h17.8v19H8.6zm1.8-20.7h-.3l-1.5.1V72h17.8V53.3h-16zm17.8 0h17.9v18.8H28.2zm19.8 0h17.8v18.8H48zm-26.3-48h8.7v7.4h-8.7z"/><path class="st1" d="M29.5 39.2h-6.9c-1.1 0-1.9-.9-1.9-1.9V5.7c0-1.1.9-1.9 1.9-1.9h6.9c1.1 0 1.9.9 1.9 1.9v31.6c.1 1-.8 1.9-1.9 1.9z"/><path class="st0" d="M40.9 5.3h8.7v7.4h-8.7z"/><path class="st2" d="M48.7 39.2h-6.9c-1.1 0-1.9-.9-1.9-1.9V5.7c0-1.1.9-1.9 1.9-1.9h6.9c1.1 0 1.9.9 1.9 1.9v31.6c0 1-.8 1.9-1.9 1.9z"/><path class="st1" d="M66.2 52.5H3.7l7-13.3h55.5M7.5 52.5v61.3h59.4m38.7-36h52.9l-7-13.2h-45.9m52.9 13.2v36h-53.6"/><path class="st1" d="M66.2 3.8h38.7v110H66.2z"/><path class="st3" d="M99.4 64.1v44.3H71.7V8.2H99v37.6m11.4 63.8V83.1h42.9v25.2H117"/></svg>