<svg id="Layer_1" xmlns="http://www.w3.org/2000/svg" viewBox="0 0 110.3 116.8"><style>.st0{fill:none;stroke:#3e3f3f;stroke-width:2.8855;stroke-miterlimit:10}.st1{fill:#3e3f3f}.st2{fill:#18b125}</style><path class="st0" d="M85.1 82.1v21.8c0 5.9-4.8 10.7-10.7 10.7H13c-5.9 0-10.7-4.8-10.7-10.7v-91C2.4 7 7.1 2.2 13 2.2h53.8l18.3 19"/><path class="st0" d="M62.3 9v11.9c-.3 7 6.3 6.5 6.3 6.5h16.6v24.1M13.1 39.4h25.7"/><circle class="st1" cx="38.8" cy="39.4" r="1.5"/><circle class="st1" cx="13.1" cy="39.4" r="1.5"/><path class="st0" d="M29.3 50.6H55"/><circle class="st1" cx="55" cy="50.6" r="1.5"/><circle class="st1" cx="29.3" cy="50.6" r="1.5"/><path class="st0" d="M13.1 86.3h25.7"/><circle class="st1" cx="38.8" cy="86.3" r="1.5"/><circle class="st1" cx="13.1" cy="86.3" r="1.5"/><path class="st0" d="M46.9 39.4h8.2"/><circle class="st1" cx="55.1" cy="39.4" r="1.5"/><circle class="st1" cx="47" cy="39.4" r="1.5"/><path class="st0" d="M13.1 50.6h8.1"/><circle class="st1" cx="21.2" cy="50.6" r="1.5"/><circle class="st1" cx="13.1" cy="50.6" r="1.5"/><path class="st0" d="M46.9 62.5h8.2"/><circle class="st1" cx="55.1" cy="62.5" r="1.5"/><circle class="st1" cx="46.9" cy="62.5" r="1.5"/><path class="st0" d="M13 74.4h8.2"/><circle class="st1" cx="21.2" cy="74.4" r="1.5"/><circle class="st1" cx="13.1" cy="74.4" r="1.5"/><path class="st0" d="M30.7 74.4h8.2"/><circle class="st1" cx="38.9" cy="74.4" r="1.5"/><circle class="st1" cx="30.7" cy="74.4" r="1.5"/><path class="st0" d="M13.1 62.5h25.7"/><circle class="st1" cx="38.8" cy="62.5" r="1.5"/><circle class="st1" cx="13.1" cy="62.5" r="1.5"/><path transform="rotate(45.001 84.453 59.495)" class="st2" d="M78.5 35.3h11.9v48.5H78.5z"/><path transform="rotate(45.001 85.418 59.495)" class="st0" d="M79.5 35.3h11.9v48.5H79.5z"/><path class="st2" d="M61.8 75.9L59.2 83l2.6 2.6 7.5-2.1z"/><path class="st0" d="M61.8 75.9L59.2 83l2.6 2.6 7.5-2.1zM100.3 52l-3.9-3.8"/></svg>