<svg id="Layer_1" xmlns="http://www.w3.org/2000/svg" viewBox="0 0 122.8 121"><style>.st0{fill:none}.st1{fill:#18b125}.st2,.st3{fill:none;stroke:#3e3f3f;stroke-width:2.8855;stroke-miterlimit:10}.st3{stroke-width:2.7321}</style><path class="st0" d="M58.8 93.2l-6.2 6.1"/><path class="st1" d="M48.3 2.8c-1 0-7.1.7-9.1 4.2s-.3 19.9-.3 19.9 11.2-.7 15.5-3.3 8-6.2 8-6.2 5.8-6.2 5.5-7.7c-.2-1.6 1.8-6.3 1.8-6.3l-21.4-.6z"/><path class="st1" d="M69.7 3.3c-.9 1.5-5 10.2-4.9 10.5.1.3-.1 3 3.2 4.1 3.4 1.1 12.7 4.5 12.7 4.5s.5-4.6.4-6.1.9-5.7-.1-7.7c-.9-2-3.3-5.4-5.5-5.4-2.1 0-5.8.1-5.8.1z"/><path class="st2" d="M60.1 68.5c-12.1 0-21-10.3-21-22.9L38 11.3c0-5.3 4.2-8.4 9.2-8.4H73c5.1 0 8.9 3.1 8.9 8.4l-1.1 34.4c0 12.5-8.6 22.8-20.7 22.8z"/><path class="st2" d="M38.8 26.9c6.8-.4 14.8-1.7 20.4-6.2 5.4-4.3 8.1-11.5 10.7-17.8m-5.1 11.9s5.4 6.2 16.7 7.5"/><path class="st1" d="M115.6 117.8c2.3 0 4.1-1.8 4.1-4.1v-7.8c0-6.9-14.5-21.2-29.4-26.9-4-1.5 3 1.8-.8 1.8L61.3 109 32.8 80.4c-2.1 0 2.6-2.3.4-1.9C16.4 82.2 3 97.4 3 106.3v7.4c0 2.3 1.8 4.1 4.1 4.1h108.5z"/><path class="st3" d="M115.6 117.8c2.3 0 4.1-1.8 4.1-4.1v-7.8c0-8.7-23.2-29.4-41.2-29.4L61.4 93.9l-17-17.4C26.2 76.5 3 96.2 3 106.3v7.4c0 2.3 1.8 4.1 4.1 4.1h108.5z"/><path class="st3" d="M31.6 79.2L61.3 109l29.8-29.8m-37.8 22.7l7.4-7.2"/></svg>