<svg xmlns="http://www.w3.org/2000/svg" viewBox="0 0 140.8 73.3"><path d="M103.9 14.7c-.1 1.3.8 2.4 2.1 2.5 5.5.6 10.5 3.2 14 7.5.8 1 2.3 1.1 3.2.3l.4-.4c.7-.8.7-2 0-2.9-4.3-5.3-10.4-8.5-17.1-9.2-1.4 0-2.5.9-2.6 2.2z" fill="#3e3f3f" stroke="#fff" stroke-miterlimit="10"/><path d="M69.7 2.4H36C17.7 2.4 2.9 17.2 2.9 35.5v.5c0 19.3 15.6 34.9 34.9 34.9h31.9V2.4z" fill="#18b125"/><path d="M59.9 58.8c.7 0 1.3-.4 1.6-.9.2-.3.3-.7.3-1.1 0-1.1-.9-2-2-1.9l-21.9.3c-4.8.1-9.3-1.7-12.7-5.1-3.4-3.3-5.3-7.8-5.4-12.5 0-1.1-.9-2-2-1.9-1.1 0-2 .9-1.9 2 .1 5.8 2.4 11.2 6.6 15.3 4.2 4.1 9.6 6.3 15.5 6.2l21.9-.4z" fill="#fff" stroke="#18b125" stroke-miterlimit="10"/><path d="M138.1 35.5v.5c0 19.3-15.6 34.9-34.9 34.9H37.8C18.5 70.9 2.9 55.3 2.9 36v-.5C2.9 17.2 17.7 2.4 36 2.4h69c18.3 0 33.1 14.8 33.1 33.1zM70.5 71.4v-69" fill="none" stroke="#3e3f3f" stroke-width="3" stroke-miterlimit="10"/></svg>